<?xml version="1.0" encoding="utf-8"?>
<!-- Generator: Adobe Illustrator 18.0.0, SVG Export Plug-In . SVG Version: 6.00 Build 0)  -->
<!DOCTYPE svg PUBLIC "-//W3C//DTD SVG 1.1//EN" "http://www.w3.org/Graphics/SVG/1.1/DTD/svg11.dtd">
<svg version="1.1" xmlns="http://www.w3.org/2000/svg" xmlns:xlink="http://www.w3.org/1999/xlink" x="0px" y="0px"
	 viewBox="0 0 702 127.5" enable-background="new 0 0 702 127.5" xml:space="preserve">
<g id="Layer_1">
</g>
<g id="Layer_2">
	<linearGradient id="SVGID_1_" gradientUnits="userSpaceOnUse" x1="37.1128" y1="-0.406" x2="112.4659" y2="130.1095">
		<stop  offset="0" style="stop-color:#2597D6"/>
		<stop  offset="1" style="stop-color:#1880AD"/>
	</linearGradient>
	<path fill="url(#SVGID_1_)" stroke="#1780AF" stroke-miterlimit="10" d="M118.5,8.4H22.4c-1,0-1.7,0.8-1.7,1.7v107.3
		c0,1,0.8,1.7,1.7,1.7h108.4c1.3,0,2.4-1.1,2.4-2.4V94.6c0-1.3-1.1-2.4-2.4-2.4l-56.9,0c-1.5,0-2.3-1.9-1.2-3l56.1-56.1
		C137.9,24,131.5,8.4,118.5,8.4z M48.8,65.1l0.1-30.1l20,0c4.5,0,6.7,5.6,3.4,8.6L48.8,65.1z"/>
	<g>
		<path fill="#282828" d="M264.6,113.2L255.9,93h-43.1l-8.7,20.2h-25.6L224,15.7h20.2l45.6,97.4H264.6z M221,73.9h26.8l-13.4-31.2
			L221,73.9z"/>
		<path fill="#282828" d="M295.6,15.7h39.7c10.8,0,20.1,1.9,27.8,5.8c7.8,3.9,13.8,9.5,17.9,16.8s6.2,16,6.2,26.1
			c0,10.1-2.1,18.9-6.2,26.2c-4.1,7.3-10,12.9-17.8,16.8c-7.8,3.9-17.1,5.8-28,5.8h-39.7V15.7z M333.5,92.7c9.6,0,16.7-2.3,21.4-7
			c4.7-4.7,7-11.8,7-21.3c0-9.5-2.3-16.6-7-21.2c-4.7-4.7-11.8-7-21.4-7H321v56.5H333.5z"/>
		<path fill="#282828" d="M481.2,15.7h19.6v97.4h-22.1V62l-18.8,35h-16.3L425,62.9l-0.1,50.3h-22.1V15.7h20l29.3,55.4L481.2,15.7z"
			/>
		<path fill="#282828" d="M518.8,113.2V15.7h25.4v97.4H518.8z"/>
		<path fill="#282828" d="M625.1,15.7h23.8v97.4h-18.8l-44.5-55.7v55.7H562V15.7h18.5l44.6,55.7V15.7z"/>
	</g>
</g>
</svg>
